<?xml version="1.0" encoding="UTF-8" standalone="no"?>
<!-- Created with Inkscape (http://www.inkscape.org/) -->

<svg
   xmlns:dc="http://purl.org/dc/elements/1.1/"
   xmlns:cc="http://creativecommons.org/ns#"
   xmlns:rdf="http://www.w3.org/1999/02/22-rdf-syntax-ns#"
   xmlns:svg="http://www.w3.org/2000/svg"
   xmlns="http://www.w3.org/2000/svg"
   xmlns:sodipodi="http://sodipodi.sourceforge.net/DTD/sodipodi-0.dtd"
   xmlns:inkscape="http://www.inkscape.org/namespaces/inkscape"
   width="700"
   height="700"
   id="svg2"
   version="1.1"
   inkscape:version="0.48.4 r9939"
   sodipodi:docname="icon.svg"
   inkscape:export-filename="C:\Users\azyobuzin\Documents\Eclipse\AlpacaViewer\icon_raw.png"
   inkscape:export-xdpi="90"
   inkscape:export-ydpi="90">
  <defs
     id="defs4" />
  <sodipodi:namedview
     id="base"
     pagecolor="#ffffff"
     bordercolor="#666666"
     borderopacity="1.0"
     inkscape:pageopacity="0.0"
     inkscape:pageshadow="2"
     inkscape:zoom="0.88428571"
     inkscape:cx="350"
     inkscape:cy="350"
     inkscape:document-units="px"
     inkscape:current-layer="layer1"
     showgrid="false"
     inkscape:window-width="1440"
     inkscape:window-height="837"
     inkscape:window-x="-8"
     inkscape:window-y="-8"
     inkscape:window-maximized="1" />
  <metadata
     id="metadata7">
    <rdf:RDF>
      <cc:Work
         rdf:about="">
        <dc:format>image/svg+xml</dc:format>
        <dc:type
           rdf:resource="http://purl.org/dc/dcmitype/StillImage" />
        <dc:title></dc:title>
      </cc:Work>
    </rdf:RDF>
  </metadata>
  <g
     inkscape:label="レイヤー 1"
     inkscape:groupmode="layer"
     id="layer1"
     transform="translate(0,-352.36218)">
    <path
       style="fill:#ffffff;fill-opacity:1;stroke:#525252;stroke-width:4;stroke-linecap:butt;stroke-linejoin:miter;stroke-miterlimit:4;stroke-opacity:1;stroke-dasharray:none"
       d="m 266.91185,533.5857 c -1.54751,-1.97094 -3.09502,-3.94189 -4.64253,-5.91283 -1.03167,0 -2.26968,0.59128 -3.09501,0 -0.33582,-0.24059 -5.69961,-8.4008 -6.19005,-8.86926 -1.31512,-1.25624 -3.32739,-1.70018 -4.64252,-2.95642 -0.36475,-0.34842 0.23068,-1.0375 0,-1.47821 -1.96576,-3.75547 -1.84955,1.51386 -3.09503,-4.43463 -0.30348,-1.44951 0.85841,-3.20469 0,-4.43463 -0.57226,-0.81996 -2.11628,0.31164 -3.09501,0 -0.69207,-0.22036 -0.85544,-1.25786 -1.54751,-1.47821 -0.97873,-0.31163 -2.23662,0.54664 -3.09501,0 -0.95974,-0.61117 -0.58779,-2.34526 -1.54752,-2.95642 -0.23564,-0.15006 -8.66323,0 -9.28505,0 -0.26837,0 -10.51117,-0.1535 -10.83257,0 -0.65248,0.31163 -0.94052,1.09168 -1.54751,1.47821 -0.95973,0.61117 -2.27941,0.69912 -3.09502,1.47821 -0.81561,0.77909 -0.47656,2.54722 -1.54751,2.95642 -4.87423,1.86238 -5.72488,-1.92254 -9.28506,1.47821 -0.8156,0.77908 -0.7319,2.17733 -1.5475,2.95642 -5.63235,5.38012 -1.08733,-1.57157 -4.64253,2.95642 -1.11593,1.42127 -1.60712,3.36867 -3.09502,4.43463 -1.65068,1.18257 -4.47324,-1.09328 -6.19004,0 -0.95973,0.61116 -0.51583,2.46368 -1.5475,2.95642 -3.67911,1.75717 -5.67406,-1.97109 -9.28506,1.4782 -1.7782,1.69857 -1.54751,2.61426 -1.54751,4.43464 0,0.49274 0.28613,1.06823 0,1.47821 -0.80931,1.1596 -2.06335,1.97094 -3.09503,2.95641 -0.51583,0.49274 -1.31681,0.81714 -1.5475,1.47821 -0.32625,0.93491 0.72951,2.25959 0,2.95643 -0.7295,0.69683 -2.17227,-0.44072 -3.09502,0 -0.46138,0.22036 0,0.98547 0,1.47821 0,2.95642 0,5.91283 0,8.86926 0,3.33962 0.23069,-0.66108 -1.54751,4.43462 -0.16312,0.46746 0.36475,1.1298 0,1.47821 -0.36475,0.34842 -1.18276,-0.34841 -1.5475,0 -0.36476,0.34842 0,0.98548 0,1.47821 0,1.47822 0,2.95643 0,4.43464 0,4.43462 0,8.86926 0,13.30388 0,1.47821 0,2.95642 0,4.43464 0,0.98547 0.32624,2.02151 0,2.95642 -0.87845,2.5173 -2.21659,4.87375 -3.09503,7.39105 -0.52884,1.51546 0.53716,9.32125 0,10.34747 -0.23069,0.44071 -1.03167,0 -1.54751,0 -1.03167,0 -2.06334,0 -3.09501,0 -6.19005,0 2.57918,0.49273 -1.54751,-1.47822 -0.92276,-0.44071 -2.17227,0.44072 -3.09503,0 -0.46137,-0.22035 0.36476,-1.12979 0,-1.47821 -0.55588,-0.53099 -5.18887,0.47817 -6.19003,0 -0.46138,-0.22036 0.36475,-1.12979 0,-1.47821 -0.19115,-0.18259 -5.21962,0 -6.19004,0 -1.32827,0 -8.37964,-0.28829 -9.28506,0 -2.24835,0.71589 -4.56843,8.65693 -4.64252,8.86926 -0.16312,0.46745 0.23069,1.03749 0,1.47821 -0.32625,0.62327 -1.14286,0.89841 -1.54751,1.47821 -0.63982,0.91675 -0.7319,2.17733 -1.54751,2.95643 -0.81562,0.77908 -2.4552,0.56145 -3.09503,1.4782 -1.03167,1.47821 0.51584,2.95642 0,4.43463 -0.36474,1.04525 -1.18275,1.91117 -1.5475,2.95642 -0.16312,0.46745 0,0.98548 0,1.47822 0,2.95641 1.14946,6.12428 0,8.86925 -0.38315,0.91499 -2.52275,-0.81996 -3.09502,0 -0.8584,1.22995 0.37533,3.00056 0,4.43463 -0.17693,0.67603 -1.10981,0.92074 -1.54751,1.47821 -1.11592,1.42127 -2.50687,2.74921 -3.09501,4.43463 -0.48937,1.40236 0,2.95642 0,4.43463 0,1.97095 0.2918,3.96171 0,5.91283 -0.23069,1.54252 -1.31683,2.89213 -1.54752,4.43464 -0.51065,3.41449 0.59362,6.94524 0,10.34747 -0.26817,1.53697 -1.15188,2.92298 -1.54751,4.43462 -0.1251,0.47804 0.23069,1.0375 0,1.47821 -0.83175,1.58903 -2.26326,2.84561 -3.09501,4.43464 -0.23069,0.44072 0,0.98547 0,1.47821 0,0.98547 0,1.97094 0,2.95641 0,2.4637 0,4.92738 0,7.39106 0,4.43462 0,8.86926 0,13.30388 0,3.22408 -0.48936,5.95077 1.5475,8.86926 0.28614,0.40999 1.18277,-0.34842 1.54751,0 0.36476,0.34842 -0.36474,1.1298 0,1.47821 0.36476,0.34842 1.03167,0 1.54751,0 1.03168,0.49274 2.45521,0.56147 3.09503,1.47821 0.57226,0.81996 -0.32625,2.02152 0,2.95643 0.23069,0.66107 1.31681,0.81713 1.5475,1.47821 0.32625,0.9349 -0.7295,2.25958 0,2.95641 0.384,0.3668 7.02212,-0.34169 7.73755,0 0.46137,0.22036 -0.36475,1.1298 0,1.47821 0.7295,0.69684 2.63364,-0.88143 3.09502,0 2.92307,5.58435 -0.42987,1.88883 -1.54751,2.95643 -0.36475,0.34841 0,0.98547 0,1.47821 -1.03167,0.49273 -2.27941,0.69912 -3.09503,1.47821 -0.8156,0.77908 -1.18275,1.91116 -1.5475,2.95641 -0.16312,0.46746 0.46138,1.25785 0,1.47821 -0.92275,0.44072 -2.23661,-0.54664 -3.09502,0 -6.1805,3.93583 0.42126,1.61372 -1.54751,4.43464 -0.80931,1.1596 -1.88105,2.18334 -3.09501,2.95641 -0.42921,0.27332 -1.08614,-0.22036 -1.54752,0 -0.65248,0.31164 -0.94053,1.09168 -1.54751,1.47821 -0.95972,0.61116 -2.4552,0.56147 -3.09501,1.47821 -0.57228,0.81996 0.46138,2.07499 0,2.95643 -0.23069,0.44071 -1.18276,-0.34842 -1.547512,0 -0.364754,0.34841 0.286132,1.06822 0,1.47821 -4.474543,6.41125 -1.996723,-0.40548 -4.642534,5.91283 -0.605811,1.44673 -1.227601,2.90672 -1.547508,4.43463 -0.20232,0.96633 0.572274,2.13646 0,2.95642 -0.639815,0.91675 -2.455201,0.56147 -3.095016,1.47821 -0.572273,0.81996 0,1.97094 0,2.95642 0,1.97095 0,3.9419 0,5.91284 0,1.47821 0,2.95642 0,4.43463 0,0.49273 0.125106,1.00018 0,1.47821 -0.395627,1.51165 -1.151881,2.92298 -1.547508,4.43463 -0.125105,0.47802 0.286132,1.06823 0,1.47821 -0.809311,1.1596 -2.285714,1.79682 -3.095015,2.95642 -0.286142,0.40998 0,0.98548 0,1.47821 0,0.98548 0,1.97095 0,2.95642 0,2.46368 0,4.92736 0,7.39105 0,4.43463 0,8.86925 0,13.30389 0,1.02074 -0.235251,5.46341 0,5.91283 0.326244,0.62327 1.316817,0.81714 1.547508,1.47822 0.326244,0.9349 0,1.97095 0,2.95642 0,1.47821 -0.375327,3.00055 0,4.43462 0.176928,0.67604 1.316817,0.81714 1.547507,1.47821 0.326245,0.93491 -0.326244,2.02153 0,2.95643 1.031672,1.97094 2.063344,3.94189 3.095016,5.91283 0.515836,0 1.182765,-0.34841 1.547508,0 0.364754,0.34842 -0.364743,1.1298 0,1.47821 0.364754,0.34842 1.316828,-0.44071 1.547508,0 0.46138,0.88144 -0.729498,2.25959 0,2.95643 0.729508,0.69683 2.172265,-0.44072 3.095026,0 0.46137,0.22036 -0.364754,1.12979 0,1.47821 0.364744,0.34842 1.031672,0 1.547508,0 5.158362,0 10.316732,0 15.475092,0 1.5475,0 3.09502,0 4.64253,0 0.51584,0 1.54751,-0.49274 1.54751,0 0,0.49273 -1.54751,-0.49274 -1.54751,0 0,1.10179 1.18275,1.91116 1.54751,2.95641 0.32624,0.93491 0,1.97095 0,2.95642 0,2.46369 0,4.92737 0,7.39105 0,1.97095 0.40465,3.98017 0,5.91285 -0.31991,1.5279 -1.15188,2.92298 -1.54751,4.43462 -0.12512,0.47802 0,0.98547 0,1.47821 0,2.95643 0,5.91284 0,8.86926 0,1.47821 0.57473,3.06215 0,4.43464 -0.54187,1.29398 -2.55316,1.66242 -3.09503,2.95641 -0.57472,1.37248 0,2.95642 0,4.43463 0,4.43464 0,8.86926 0,13.3039 0,4.92736 0,9.85473 0,14.78209 0,1.17955 -0.30946,6.5042 0,7.39105 1.87006,5.35894 0.73425,1.05204 3.09503,4.43463 1.7782,2.54786 1.54751,2.23444 1.54751,4.43463 0,0.98548 0,1.97095 0,2.95642 0,0.49274 -0.46138,1.25785 0,1.47821 0.92275,0.44072 2.06334,0 3.09501,0 0.51584,0 1.3844,-0.46745 1.54751,0 0.48937,1.40235 -0.8584,3.20468 0,4.43462 0.57228,0.81997 2.1163,-0.31163 3.09503,0 0.69206,0.22036 1.10981,0.92075 1.54751,1.47822 1.05946,1.34938 3.92244,5.32753 4.64252,7.39105 0.16313,0.46745 -0.23069,1.03749 0,1.4782 1.92143,3.67077 1.32088,-0.63705 4.64253,1.47822 0.95973,0.61117 0.7319,2.17734 1.54751,2.95642 0.81561,0.77908 2.27941,0.69913 3.09502,1.47821 0.8156,0.77908 0.7319,2.17733 1.54751,2.95641 0.36475,0.34842 1.03167,0 1.5475,0 1.03168,0 2.17227,-0.4407 3.09503,0 0.46137,0.22036 -0.36475,1.1298 0,1.47821 0.36474,0.34842 1.05814,-0.15581 1.54751,0 1.09425,0.34842 2.00076,1.1298 3.09501,1.47822 1.10632,0.35226 9.09481,0 10.83257,0 8.76922,0 17.53844,0 26.30765,0 5.15837,0 10.31673,0 15.4751,0 1.06859,0 5.71954,0.22471 6.19004,0 0.65248,-0.31163 0.85544,-1.25786 1.54751,-1.47822 0.97873,-0.31163 2.23661,0.54665 3.09502,0 0.95972,-0.61116 0.58779,-2.34525 1.54751,-2.95641 0.8584,-0.54664 2.06334,0 3.09501,0 1.54751,0 3.2584,0.66107 4.64254,0 0.46137,-0.22036 -0.36476,-1.12979 0,-1.47821 2.57918,-2.46368 1.54751,5.42011 1.54751,-2.95642 0,-0.49274 -0.2307,1.03749 0,1.47821 0.32624,0.62327 1.31681,0.81713 1.5475,1.47821 0.32625,0.9349 -0.57227,2.13645 0,2.95641 0.63982,0.91676 2.27941,0.69913 3.09502,1.47821 0.36475,0.34842 -0.36474,1.1298 0,1.47822 0.36475,0.34841 1.11831,-0.27333 1.54751,0 1.21397,0.77306 2.06335,1.97095 3.09502,2.95642 0.51584,0.49273 0.85544,1.25785 1.54751,1.47821 0.97873,0.31163 2.36552,-0.69684 3.09502,0 0.7295,0.69683 -0.46138,2.07499 0,2.95641 0.23069,0.44072 1.18276,-0.34841 1.5475,0 0.36476,0.34842 0,0.98548 0,1.47821 0.51584,0.98548 0.58779,2.34527 1.54751,2.95643 0.85841,0.54664 2.17227,-0.44072 3.09503,0 0.46137,0.22036 -0.36476,1.12979 0,1.47821 0.36474,0.34842 1.03167,0 1.54751,0 1.03167,0.49273 2.4552,0.56146 3.09501,1.47821 4.02597,5.76851 -3.57629,0.76387 1.54751,4.43462 8.84924,6.33972 0.35381,0.8236 9.28506,2.95643 4.29357,1.02532 -0.13633,1.34797 1.54751,2.95642 1.31513,1.25623 3.15462,1.89047 4.64253,2.95641 3.09502,2.21732 0,1.47821 4.64252,4.43464 0.42921,0.27332 1.03168,0 1.54751,0 1.54751,0 3.17444,-0.46746 4.64254,0 0.48936,0.15581 -0.48938,1.32238 0,1.47821 1.46809,0.46744 3.09501,0 4.64252,0 0.51584,0 1.11831,-0.27332 1.54751,0 1.21397,0.77307 1.88105,2.18334 3.09502,2.95641 0.4292,0.27332 1.05814,-0.15581 1.54751,0 1.09425,0.34842 2.00077,1.1298 3.09502,1.47821 0.48936,0.15582 1.03167,0 1.5475,0 1.54751,0 3.14123,-0.35852 4.64254,0 0.70771,0.16901 0.85544,1.25786 1.54751,1.47821 0.97873,0.31163 2.23661,-0.54664 3.09501,0 0.95972,0.61117 0.58779,2.34528 1.54751,2.95648 0.85841,0.5466 2.06334,0 3.09502,0 0.51583,0 1.03168,0 1.54751,0 3.43955,0 7.53893,-0.4495 10.83257,0 1.61482,0.2203 3.06001,1.1003 4.64252,1.4782 1.43153,0.3418 8.09499,0 9.28506,0 7.22172,0 14.44342,0 21.66513,0 3.61085,0 7.22172,0 10.83257,0 0.51583,0 1.11831,0.2733 1.54751,0 1.21396,-0.7731 1.88105,-2.1834 3.09501,-2.9565 0.42921,-0.2733 1.03167,0 1.54751,0 1.54752,0 3.11058,0.2091 4.64253,0 1.02023,-0.1392 7.69833,-1.4407 9.28506,-2.95639 0.81561,-0.77908 0.51584,-2.46368 1.54751,-2.95642 1.38413,-0.66107 3.14123,0.35852 4.64252,0 0.70773,-0.169 0.8398,-1.3092 1.54751,-1.4782 1.50131,-0.35852 3.2057,0.54899 4.64254,0 1.35465,-0.5176 1.88105,-2.18336 3.09501,-2.95642 0.42921,-0.27333 1.08614,0.22035 1.54751,0 0.65249,-0.31164 1.03167,-0.98548 1.54751,-1.47822 1.54752,-0.98547 2.91568,-2.29661 4.64253,-2.95642 0.95788,-0.36599 2.11628,0.31164 3.09502,0 0.69207,-0.22036 0.94052,-1.09168 1.54751,-1.4782 0.95973,-0.61117 2.27941,-0.69913 3.09502,-1.47821 0.81561,-0.77908 0.73189,-2.17734 1.54751,-2.95642 10e-4,-10e-4 4.63551,0.002 4.64252,0 4.05653,-1.29162 -0.96909,-2.03073 1.54751,-4.43464 0.72951,-0.69683 2.11629,0.31164 3.09503,0 2.64176,-0.84115 1.03167,-1.4782 1.54751,-2.95641 0.36474,-1.04525 0.7319,-2.17734 1.5475,-2.95642 0.81561,-0.77909 2.4552,-0.56146 3.09502,-1.47822 0.57227,-0.81995 -0.32625,-2.02151 0,-2.95641 0.23069,-0.66108 1.31682,-0.81713 1.54751,-1.47821 0.32624,-0.93491 -0.57227,-2.13646 0,-2.95642 0.63981,-0.91675 2.27941,-0.69913 3.09502,-1.47821 0.36475,-0.34842 0,-0.98548 0,-1.47822 0,-0.41326 -0.12106,-7.15976 0,-7.39104 0.23068,-0.44072 1.03167,0 1.54751,0 1.03167,0 2.06334,0 3.09502,0 0.51583,0 1.08612,-0.22036 1.5475,0 0.65249,0.31164 0.8398,1.3092 1.54751,1.47821 1.50131,0.35852 3.12508,-0.28991 4.64254,0 1.13104,0.21607 2.00076,1.12979 3.09501,1.47821 0.48936,0.15581 1.03167,0 1.54751,0 1.03167,0 2.06334,0 3.09502,0 3.61086,0 7.22171,0 10.83256,0 2.57919,0 5.15837,0 7.73755,0 1.03167,0 2.13714,0.366 3.09502,0 1.72685,-0.65981 2.97901,-2.16191 4.64253,-2.95642 0.92275,-0.44072 2.11628,0.31164 3.09502,0 9.60556,-3.05847 -5.14319,0.11956 7.73755,-2.95643 0.50043,-0.1195 1.18275,0.34842 1.5475,0 0.81561,-0.77908 0.58779,-2.34525 1.54751,-2.95641 0.85841,-0.54664 2.07739,0.16201 3.09502,0 2.09791,-0.334 4.09213,-1.14422 6.19004,-1.47821 1.01763,-0.16201 2.06334,0 3.09502,0 0.51583,0 1.08613,0.22036 1.5475,0 1.66353,-0.79451 2.97901,-2.16191 4.64254,-2.95642 3.81144,-1.82038 -1.39699,4.29085 4.64252,-1.47821 0.81562,-0.77909 0.62476,-2.29535 1.54751,-2.95642 3.63535,-2.60442 5.35956,-0.85326 9.28506,-1.47821 1.60902,-0.25616 3.06001,-1.1003 4.64253,-1.47821 0.50043,-0.1195 1.13484,0.29564 1.54751,0 5.67848,0.35163 3.54766,-5.49802 6.19003,-7.39105 1.30498,-0.93491 3.04299,-1.17263 4.64254,-1.47821 1.01164,-0.19327 2.36551,0.69684 3.09501,0 0.72951,-0.69683 -0.46138,-2.07499 0,-2.95642 0.23069,-0.44072 1.18277,0.34842 1.54751,0 0.36475,-0.34842 -0.50043,-1.3587 0,-1.47821 2.06335,0 4.1267,0 6.19004,0 0,-0.49273 -0.46138,-1.25786 0,-1.47821 0.92275,-0.44071 2.36552,0.69683 3.09502,0 2.5166,-2.40391 -2.50901,-3.14301 1.5475,-4.43463 0.97874,-0.31164 2.36552,0.69684 3.09503,0 0.37237,-0.35571 -0.37238,-5.55714 0,-5.91283 0.36474,-0.34842 1.31682,0.4407 1.54751,0 0.46138,-0.88144 -0.32625,-2.02153 0,-2.95643 0.23069,-0.66107 1.31682,-0.81713 1.54751,-1.47821 0.32624,-0.9349 -0.57228,-2.13645 0,-2.95642 0.63981,-0.91674 2.4552,-0.56146 3.09501,-1.47821 0,-8.37652 -1.03167,-0.49273 1.54751,-2.95642 0.36475,-0.34841 0,-0.98548 0,-1.47821 0,-0.49274 0,-0.98547 0,-1.47821 0,-4.43462 0,-8.86926 0,-13.30389 0,-0.49273 0,-0.98547 0,-1.4782 0,-0.98548 -0.57226,-2.13647 0,-2.95643 0.63981,-0.91675 2.00076,-1.12979 3.09503,-1.47821 0.48936,-0.15581 1.31681,0.44072 1.5475,0 0.46139,-0.88143 -0.32624,-2.02151 0,-2.95642 0.59253,-1.698 3.69457,-2.05091 4.64253,-2.95641 0.8156,-0.7791 1.18276,-1.91117 1.54751,-2.95643 0.16312,-0.46745 -0.44233,-1.2247 0,-1.47821 0.0653,-0.0375 7.966,-1.91466 9.28505,-4.43462 0.72951,-1.39367 1.15188,-2.92299 1.54751,-4.43464 0.12512,-0.47802 -0.28613,-1.06822 0,-1.47821 1.03167,-0.98547 2.06336,-1.97094 3.09503,-2.95642 0.51583,0 1.18275,0.34842 1.54751,0 1.31512,-1.25623 1.97908,-3.01335 3.09501,-4.43462 1.72764,-2.20038 4.59342,-3.62517 6.19004,-5.91284 0.28614,-0.40998 0,-0.98548 0,-1.47821 0,-0.98548 -0.32624,-2.02153 0,-2.95642 0.23068,-0.66108 1.31682,-0.81714 1.54751,-1.47822 0.32625,-0.93489 0,-1.97094 0,-2.95642 0,-5.6e-4 -0.11183,-11.50519 0,-11.82567 0.58814,-1.68542 2.26326,-2.84561 3.09502,-4.43463 0.23069,-0.44072 0,-0.98548 0,-1.47822 0,-3.44915 0,-6.8983 0,-10.34747 0,-2.95641 0,-5.91283 0,-8.86925 0,-1.47822 0,-2.95642 0,-4.43463 0,-0.49274 0.16311,-1.01076 0,-1.47821 -0.36476,-1.04525 -1.18276,-1.91117 -1.54751,-2.95642 -0.70313,-2.01494 1.80294,-2.30103 -1.54751,-4.43463 -0.8584,-0.54664 -2.17226,0.44072 -3.09503,0 -0.46136,-0.22036 0.16313,-1.01075 0,-1.47821 -0.23698,-0.67914 -1.76707,-4.01181 -3.09501,-4.43463 -0.97873,-0.31163 -2.36552,0.69683 -3.09502,0 -1.15345,-1.1018 -0.56877,-3.18809 -1.5475,-4.43463 -0.69208,-0.88143 -2.45521,-0.56147 -3.09503,-1.47821 -0.57226,-0.81997 0,-1.97095 0,-2.95642 0,-0.49273 0.36475,-1.1298 0,-1.47821 -0.36474,-0.34842 -1.18275,0.34841 -1.54751,0 -0.36474,-0.34842 0.36476,-1.12979 0,-1.4782 -0.36474,-0.34842 -1.03167,0 -1.54751,0 -1.03167,-0.98549 -2.2857,-1.79682 -3.09501,-2.95643 -0.22167,-0.31761 0,-4.95985 0,-5.91284 0,-0.98547 0,-1.97094 0,-2.95642 0,-0.98547 -0.25022,-2.00037 0,-2.95642 0.27975,-1.06889 1.18275,-1.91117 1.54751,-2.95642 0.43233,-1.23892 -0.51279,-4.93319 0,-5.91284 0.32624,-0.62327 1.31681,-0.81713 1.5475,-1.47821 0.97874,-1.32649 -0.48936,-3.03227 0,-4.43462 2.88869,-8.27798 -0.30949,1.87239 4.64254,-4.43464 0.97872,-1.24653 1.15188,-2.92298 1.54751,-4.43462 0.1251,-0.47803 0,-0.98548 0,-1.47821 0,-2.46369 -0.81562,-5.0538 0,-7.39106 0.36474,-1.04525 2.4552,-0.56146 3.09501,-1.4782 0.53228,-0.76267 -0.46516,-7.53628 0,-8.86926 0.23069,-0.66108 1.31682,-0.81714 1.54751,-1.47821 1.54751,-4.43464 -0.77375,-1.47821 0,-4.43464 0.39563,-1.51164 1.15188,-2.92297 1.54751,-4.43462 0.12511,-0.47803 0,-0.98548 0,-1.47821 0,-2.46368 0,-4.92737 0,-7.39106 0,-3.44915 0,-6.89831 0,-10.34746 0,-3.94189 0,-7.88379 0,-11.82568 0,-1.97095 1.23801,-4.33609 0,-5.91285 -0.92851,-1.18256 -3.54827,1.04526 -4.64253,0 -1.09425,-1.04525 0.48936,-3.03227 0,-4.43462 -0.16312,-0.46745 -1.06856,0.18299 -1.5475,0 -2.14191,-0.81839 -4.1267,-1.97095 -6.19005,-2.95642 -1.03167,-0.49273 -2.4552,-0.56146 -3.09501,-1.47821 0,-8.37652 1.03167,-0.49273 -1.54751,-2.95642 -0.36475,-0.34841 0.46138,-1.25785 0,-1.47821 -8.76922,0 -0.51584,0.98547 -3.09503,-1.47821 -0.77374,-0.73911 -3.86876,0.73911 -4.64252,0 -0.7295,-0.69684 0,-1.97095 0,-2.95642 0,-6.40558 0,-12.81116 0,-19.21673 0,-12.31841 0,-24.63684 0,-36.95525 0,-4.43462 0,-8.86926 0,-13.30389 0,-1.4782 0.48936,-3.03227 0,-4.43462 -0.46138,-1.32216 -2.63363,-1.63427 -3.09502,-2.95643 -0.32624,-0.9349 0.57227,-2.13645 0,-2.95641 -0.63981,-0.91675 -2.4552,-0.56147 -3.09502,-1.47821 -3.09502,-4.43464 1.54752,-1.47821 0,-4.43464 -0.2341,-0.44724 -5.72183,-5.68921 -6.19003,-5.91283 -0.46138,-0.22036 -1.31682,0.44072 -1.54751,0 -0.46138,-0.88144 0.7295,-2.25959 0,-2.95642 -0.72951,-0.69684 -2.06334,0 -3.09503,0 -0.95892,0 -8.80086,0.23125 -9.28504,0 -0.46139,-0.22036 0.36474,-1.1298 0,-1.47822 -0.28119,-0.26858 -7.19037,0.34846 -7.73755,0 -1.21397,-0.77307 -1.88106,-2.18334 -3.09502,-2.95641 -0.42921,-0.27332 -1.03167,0 -1.54752,0 -1.03167,0 -2.06334,0 -3.09501,0 -3.61086,0 -7.22171,0 -10.83257,0 -0.51584,0 -1.03167,0 -1.54751,0 -0.51583,0 -1.18275,-0.34842 -1.54751,0 -0.36475,0.34842 0.46138,1.25784 0,1.4782 -0.24213,0.11565 -7.3049,0 -7.73755,0 -1.06859,0 -5.71954,0.22472 -6.19003,0 -3.11187,-1.48626 -0.62041,-3.10624 -1.54752,-4.43462 -0.8093,-1.15961 -2.34436,-1.76136 -3.09501,-2.95642 -0.83925,-1.33613 -1.15188,-2.92298 -1.54751,-4.43463 -0.1251,-0.47803 0.46138,-1.25785 0,-1.47821 -0.92276,-0.44072 -2.17226,0.44072 -3.09502,0 -0.61225,-0.29242 0.76976,-2.96406 0,-4.43463 -0.23069,-0.44072 -1.18276,0.34841 -1.5475,0 -0.36476,-0.34842 0,-0.98548 0,-1.47822 -1.03167,0 -2.23662,0.54665 -3.09503,0 -4.35738,-0.0918 -0.39406,-3.33283 -1.54751,-4.43462 -0.36475,-0.34842 -1.31681,0.44072 -1.54751,0 -0.46138,-0.88144 0.57228,-2.13645 0,-2.95642 -0.63981,-0.91675 -2.13529,-0.86704 -3.09501,-1.47821 -0.60698,-0.38654 -1.03167,-0.98548 -1.54751,-1.47822 -1.03167,-0.98547 -1.88105,-2.18334 -3.09503,-2.95641 -0.12729,-0.081 -5.80607,0 -6.19003,0 -3.09502,0 -6.19004,0 -9.28505,0 -1.03168,0 -2.1163,-0.31164 -3.09502,0 -1.09426,0.34842 -1.95317,1.32239 -3.09503,1.47821 -2.55325,0.34842 -5.15836,0 -7.73754,0 -1.03167,0 -2.08338,-0.19326 -3.09502,0 -1.59954,0.30558 -3.06002,1.10029 -4.64253,1.4782 -0.93311,0.22284 -7.38705,-0.33479 -7.73755,0 -0.36475,0.34842 0.46138,1.25786 0,1.47822 -0.92275,0.44071 -2.06334,0 -3.09501,0 -0.51584,0 -1.11831,-0.27333 -1.54751,0 -2.97599,1.89514 -4.76157,5.49591 -7.73755,7.39105 -0.72488,0.46161 -5.42376,-0.36598 -6.19004,0 -0.46137,0.22035 0.36475,1.12979 0,1.4782 -0.36474,0.34842 -1.31682,-0.44071 -1.54751,0 -0.46137,0.88144 0.72951,2.25959 0,2.95643 -0.36884,0.35232 -5.19014,0 -6.19003,0 -6.70588,0 -13.41176,0 -20.11762,0 -1.03168,0 -2.06335,0 -3.09502,0 -0.51584,0 -1.18276,0.34841 -1.54752,0 -0.7295,-0.69684 0.57228,-2.13646 0,-2.95643 -0.8093,-1.1596 -2.2857,-1.79681 -3.09501,-2.95641 -0.28614,-0.40998 0.36475,-1.12979 0,-1.47821 -0.36476,-0.34842 -1.18276,0.34842 -1.54751,0 -0.81561,-0.77908 -1.18276,-1.91117 -1.54751,-2.95642 -0.16313,-0.46746 0.46138,-1.25786 0,-1.47821 -0.92276,-0.44072 -2.06334,0 -3.09502,0 -0.51583,0 -1.18276,0.34841 -1.54751,0 -0.36475,-0.34842 0.46138,-1.25786 0,-1.47822 -0.92275,-0.4407 -2.06335,0 -3.09502,0 -1.03167,0 -2.06334,0 -3.09502,0 -4.12669,0 -8.25338,0 -12.38007,0 -15.99093,0 -31.98186,0 -47.9728,0 -0.5897,0 -7.58733,-0.14347 -7.73754,0 -0.36475,0.34842 0.46137,1.25786 0,1.47822 -0.92276,0.44071 -2.23662,-0.54664 -3.09502,0 -8.25338,5.25586 5.6742,1.14972 -4.64253,4.43463 -1.16063,0.36955 -3.86877,-0.73911 -4.64253,0 -0.7295,0.69683 0.46138,2.07499 0,2.95642 -0.23068,0.44071 -1.18275,-0.34841 -1.54751,0 -0.36474,0.34842 0.36476,1.12979 0,1.4782 -0.36474,0.34842 -1.31681,-0.44071 -1.54751,0 -0.46138,0.88144 0.72951,2.25959 0,2.95643 -0.33236,0.31748 -7.23234,0 -7.73755,0 -0.51583,0 -1.18275,0.34841 -1.5475,0 -0.36475,-0.34842 0.36475,-1.1298 0,-1.47821 -0.36475,-0.34842 -1.18276,0.34841 -1.54751,0 -0.36475,-0.34842 0.46138,-1.25786 0,-1.47822 -0.48418,-0.23124 -8.32614,0 -9.28506,0 -2.06334,0 -4.12669,0 -6.19003,0 -1.03167,0 -3.09503,0.98548 -3.09503,0 0,-0.98547 3.09503,-0.98547 3.09503,0 0,1.39367 -2.52029,1.67545 -3.09503,2.95643 -1.0361,2.30933 1.03169,7.88378 -1.5475,7.39104 -2.57918,-0.49273 1.03167,-4.92736 0,0 z"
       id="path2998"
       inkscape:connector-curvature="0" />
    <path
       style="fill:#ffffff;fill-opacity:1;stroke:#525252;stroke-width:3.98499999999999990;stroke-linecap:butt;stroke-linejoin:miter;stroke-miterlimit:4;stroke-opacity:1;stroke-dasharray:none"
       d="m 193.57678,534.61289 c -1.52944,-5.30667 -3.0589,-10.61332 -4.58833,-15.92 -0.50981,0 -1.16894,0.46905 -1.52945,0 -0.36049,-0.46903 0.36051,-1.52094 0,-1.98999 -0.36049,-0.46906 -1.16894,0.46905 -1.52943,0 -0.3605,-0.46906 0,-1.32667 0,-1.99001 0,-5.96999 0,-11.94 0,-17.90998 0,-2.65335 0,-5.30668 0,-7.96 0,-1.32667 0,-2.65333 0,-3.98 0,-0.66333 -0.3605,-1.52096 0,-1.99 0.36049,-0.46905 1.04579,0.20976 1.52943,0 1.08148,-0.46905 2.2528,-0.94118 3.05888,-1.99 0.80611,-1.04882 1.01965,-2.65334 1.52946,-3.98 1.52944,-0.66333 3.32942,-0.67961 4.58832,-1.99001 9.73028,-10.12824 -1.50841,-2.01735 4.58833,-9.94999 0.36049,-0.46904 1.16896,0.46905 1.52945,0 0.36049,-0.46904 -0.45599,-1.69334 0,-1.98999 0.91198,-0.59332 2.03926,0 3.05888,0 0.50981,0 1.16895,0.46904 1.52945,0 0.36049,-0.46904 0,-1.32667 0,-1.99 0,-1.32667 0,-2.65333 0,-3.98001 0,-0.66332 0.45599,-1.69334 0,-1.98999 -0.912,-0.5933 -2.33791,0.93809 -3.05888,0 -0.721,-0.93809 0.45598,-2.7934 0,-3.98 -0.22801,-0.5933 -1.16896,0.46905 -1.52945,0 -0.36049,-0.46904 0,-1.32667 0,-1.99 0,-0.66333 0,-1.32667 0,-1.98999 0,-1.32668 0,-2.65334 0,-3.98001 0,-0.66334 0.36049,-1.52095 0,-1.99 -0.36049,-0.46904 -1.30146,0.5933 -1.52945,0 -0.11964,-0.31135 0,-9.39365 0,-9.95 0,-0.66332 -0.36049,-1.52095 0,-1.98999 0.36049,-0.46905 1.01964,0 1.52945,0 1.01963,0 2.03926,0 3.05888,0 0.50981,0 1.01964,0 1.52945,0 1.01962,0 2.6802,-1.23178 3.05888,0 0.9467,3.07945 -0.41906,6.67845 0,9.94999 0.64088,5.00317 3.0847,-0.9446 4.58833,1.99 0.89188,1.74066 -0.78875,9.88747 0,11.94 0.228,0.5933 1.01963,0 1.52945,0 1.52943,0 3.10455,0.48265 4.58832,0 0.69946,-0.22752 0.84546,-1.69335 1.52944,-1.99 0.96731,-0.41953 2.1469,0.5933 3.0589,0 5.56996,-3.62362 1.79309,-3.01914 3.05888,-7.96 0.72099,-2.81428 1.73368,-5.54604 3.05887,-7.95999 1.25721,-2.29008 3.0589,-3.98001 4.58834,-5.97 6.32352,-8.2277 4.41371,-7.22093 15.29443,-11.94 0.96731,-0.41953 2.03925,0 3.05888,0 3.06424,0 6.11244,0 9.17666,0 0.69038,0 9.96507,-0.32139 10.7061,0 4.55272,1.97457 3.49465,2.83484 4.58833,9.95 0.1,0.65045 -0.2828,1.43808 0,1.99 0.79987,1.56108 2.52336,2.23799 3.05888,3.97999 0.56803,1.84768 -0.48364,4.08213 0,5.97 0.16122,0.6293 1.01964,0 1.52945,0 0,1.99 -0.37095,4.03942 0,5.97 1.88994,9.83619 1.52944,-4.16452 1.52944,3.98 0,1.3149 -0.24232,11.46704 0,11.94 0.79987,1.56107 2.25903,2.41891 3.05889,3.97999 0.2828,0.55194 0.50982,1.99001 0,1.99001 -0.50981,0 -0.50981,-1.99001 0,-1.99001 0.72099,0 0.84545,1.69336 1.52945,1.99001 2.51932,1.09264 4.02468,-0.62833 6.11776,-1.99001 1.01963,-0.66333 2.11036,-1.16724 3.0589,-1.98999 0.59989,-0.52037 0.95264,-1.42715 1.52943,-1.99 0.41254,-0.40257 6.12219,-5.6393 7.64722,-5.97 2.01151,-0.4362 4.15698,0.72893 6.11777,0 1.76744,-0.65704 2.94423,-2.91041 4.58832,-3.98 0.45599,-0.29665 1.01964,0 1.52946,0 1.01962,0 2.14689,-0.5933 3.05887,0 0.456,0.29665 -0.1,1.33955 0,1.99 4.67423,30.40886 -0.48882,-9.70424 1.52945,13.93 0.34245,4.01022 1.09088,7.94565 1.52944,11.93999 0.0722,0.65667 0,1.32666 0,1.99 0,5.96999 0,11.93999 0,17.90999 0,14.59333 0,29.18666 0,43.77998"
       id="path3768"
       inkscape:connector-curvature="0" />
    <path
       style="fill:#ffffff;fill-opacity:1;stroke:#525252;stroke-width:4.00100000000000030;stroke-linecap:butt;stroke-linejoin:miter;stroke-miterlimit:4;stroke-opacity:1;stroke-dasharray:none"
       d="m 465.86316,527.05665 c -0.54573,-2.39411 -1.35809,-4.73362 -1.63716,-7.18236 -0.27076,-2.37565 0,-4.78826 0,-7.18238 0,-4.18971 0,-8.37944 0,-12.56915 0,-1.20446 -0.23446,-10.13069 0,-10.77356 2.73495,-7.49906 2.26247,-3.30856 4.91148,-7.18237 1.18058,-1.72644 1.63716,-4.18972 3.27432,-5.38679 1.87218,-1.3689 4.7486,-0.31491 6.54865,-1.79559 0.87315,-0.71824 -0.90813,-2.92718 0,-3.59118 1.3622,-0.99602 3.32321,0.4355 4.91148,0 2.0119,-0.55165 2.06383,-4.50169 3.27433,-5.38679 0.90813,-0.664 2.2981,0.53534 3.27432,0 0.48812,-0.26766 -0.38587,-1.37236 0,-1.79559 0.38589,-0.42322 1.25129,-0.42322 1.63717,0 0.87315,0.95766 -2.29203,5.86561 3.27432,1.79559 1.01533,-0.74238 0.62183,-2.8488 1.63716,-3.59119 0.90814,-0.66399 2.3662,0.66402 3.27433,0 3.54029,-2.58859 0.18567,-6.85535 1.63716,-8.97796 1.18058,-1.72642 3.15159,-2.62608 4.91148,-3.59118 0.48812,-0.26767 1.53015,0.5869 1.63716,0 0.53513,-2.93455 -1.01337,-6.19936 0,-8.97797 0.40536,-1.11145 2.1829,0 3.27433,0 5.26995,0 -2.79482,0.42322 3.27432,-1.79559 0.74944,-0.27399 7.27202,0 8.18582,0 0.54572,0 1.09144,0 1.63716,0 1.09144,0 2.36619,-0.66402 3.27432,0 1.01532,0.74238 0.66095,2.78817 1.63716,3.59118 1.38058,1.13564 3.69122,0.45723 4.91149,1.79559 0.77177,0.84646 -0.34514,2.45556 0,3.59119 0.83829,2.75823 3.57431,1.39132 4.91148,3.59119 0.60544,0.99602 -0.4881,2.5205 0,3.59118 0.24406,0.53535 1.11945,-0.18927 1.63716,0 1.15766,0.42323 2.11668,1.37237 3.27433,1.7956 0.51772,0.18927 1.39312,-0.53535 1.63716,0 0.25612,0.56181 0,9.6609 0,10.77357 0,0.59853 -0.17257,1.22776 0,1.79558 0.38588,1.26968 1.25128,2.32152 1.63716,3.59119 0.17258,0.56781 -0.4881,1.52792 0,1.79559 0.97621,0.53535 2.18289,0 3.27432,0 4.36578,0 8.73154,0 13.09731,0 1.63716,0 3.39142,-0.66687 4.91149,0 1.43312,0.62873 1.89374,2.8341 3.27432,3.59119 0.97621,0.53534 2.29811,-0.53533 3.27432,0 0.48811,0.26767 -0.4881,1.52792 0,1.79559 0.97621,0.53535 2.2389,-0.37853 3.27434,0 0.73215,0.26766 1.17409,1.11843 1.63716,1.7956 1.18056,1.72643 2.6521,3.33948 3.27432,5.38677 0.51771,1.70345 -0.51772,3.68334 0,5.38679 0.17256,0.56781 1.3931,-0.53535 1.63716,0 0.23613,0.51795 0,9.62595 0,10.77355 0,6.58384 0,13.16768 0,19.75153 0,5.38678 0,10.77356 0,16.16034 0,1.79559 0.73216,3.78075 0,5.38678 -0.6903,1.51417 -2.70108,2.01936 -3.27432,3.59119 -0.60803,1.66716 0,3.59118 0,5.38678 0,4.18972 0,8.37943 0,12.56914 0,1.19706 0,2.39414 0,3.5912 0,0.59853 0.38587,1.37237 0,1.7956 -0.38589,0.42323 -1.39312,-0.53536 -1.63716,0 -0.48812,1.07067 0.77175,2.74473 0,3.59118 -0.77178,0.84645 -2.29813,-0.53535 -3.27434,0 -0.4881,0.26767 6.39323,-13.27697 6.39323,-12.67844 0,0.59852 6.39322,-10.06052 1.5983,3.40381 -1.93367,5.42985 0.25772,-6.71878 -1.63716,-0.48402"
       id="path3772"
       inkscape:connector-curvature="0"
       sodipodi:nodetypes="cssssssssssccsscssscssssssssscsssssscssssssssssscssssssssccssssc" />
    <path
       style="fill:#ffffff;stroke:#000000;stroke-width:4;stroke-linecap:butt;stroke-linejoin:miter;stroke-opacity:1;stroke-miterlimit:4;stroke-dasharray:none;fill-opacity:1"
       d="m 228.57143,362.85714 c 0,1.90476 1.90476,5.71429 0,5.71429 -1.90476,0 -1.90476,-5.71429 0,-5.71429 4.46966,0 9.84284,8.22285 14.28571,10 0.88427,0.35371 1.95364,-0.30117 2.85715,0 0.63887,0.21296 0.88982,1.02451 1.42857,1.42857 1.37354,1.03016 2.91217,1.82699 4.28571,2.85715 0.53875,0.40406 0.7897,1.21561 1.42857,1.42857 0.90351,0.30117 1.95364,-0.30117 2.85715,0 3.44045,1.14682 6.48172,3.40614 10,4.28571 2.30986,0.57747 4.7619,0 7.14285,0 3.33334,0 6.66667,0 10,0 1.00456,0 8.15022,0.28081 8.57143,0 1.12067,-0.74711 1.57939,-2.43122 2.85714,-2.85714 1.80702,-0.60234 3.84652,0.37355 5.71429,0 0.66036,-0.13207 0.95238,-0.95238 1.42857,-1.42857 1.42857,-1.42857 2.66947,-3.07353 4.28572,-4.28572 1.37354,-1.03015 3.25555,-1.4836 4.28571,-2.85714 0.57143,-0.7619 -0.67343,-2.18371 0,-2.85714 1.50585,-1.50585 3.80952,-1.90476 5.71429,-2.85714 0.95238,-0.47619 2.38095,-0.47619 2.85714,-1.42858 0.22878,-0.45756 -0.21719,-7.70266 0,-8.57142 0.16333,-0.65333 0.95238,-0.95239 1.42857,-1.42858 0.47619,-0.95238 1.21975,-1.81302 1.42857,-2.85714 0.28017,-1.40083 0,-2.85714 0,-4.28571 0,-2.38096 0,-4.76191 0,-7.14286 0,-4.7619 0,-9.52381 0,-14.28571 0,-6.66667 0,-13.33334 0,-20 0,-0.26181 0.32228,-11.56805 0,-12.85715 C 320.95238,291.42857 320.47619,290 320,288.57143 c -0.95238,-0.47619 -2.38095,-0.47619 -2.85714,-1.42857 -4.8185,-9.63699 6.96886,1.75641 -1.42857,-10 -3.54712,-4.96597 -7.24103,-3.05349 -10,-8.57143 -0.63888,-1.27775 0.83034,-3.12324 0,-4.28572 -1.77226,-2.48116 -4.4955,-4.2015 -7.14286,-5.71428 -0.8269,-0.47251 -1.9332,0.23098 -2.85714,0 -1.03301,-0.25825 -1.84699,-1.09186 -2.85715,-1.42857 -0.45175,-0.15059 -1.21561,0.42591 -1.42857,0 -2.02142,-4.04285 3.11185,-2.29605 -2.85714,-4.28572 -0.9256,-0.30853 -5.97329,0 -7.14286,0 -4.86562,0 -9.42009,0 -14.28571,0 -5.71429,0 -11.42857,0 -17.14286,0 -0.95238,0 -1.90476,0 -2.85714,0 -0.95238,0 -2.06472,-0.52828 -2.85715,0 -0.88596,0.59064 -0.40474,2.56462 -1.42857,2.85715 -2.74721,0.78491 -5.78232,-0.61981 -8.57143,0 -1.67604,0.37245 -2.85714,1.90476 -4.28571,2.85714 -10.10012,6.73341 2.06032,-2.06032 -8.57143,8.57143 -4.17141,4.17141 -7.96945,5.11231 -12.85714,10 -0.0661,0.0661 -3.19917,5.3521 -4.28572,5.71428 -0.9035,0.30117 -2.32885,-0.79243 -2.85714,0 -0.79243,1.18865 0.79243,3.09707 0,4.28572 -1.32071,1.98107 -4.83002,2.07505 -5.71428,4.28571 -1.23797,3.09492 0.20792,6.67316 0,10 -0.26898,4.30369 -1.09785,8.55776 -1.42858,12.85714 -0.14608,1.89916 0.37356,3.84652 0,5.71429 -0.59064,2.95321 -2.39919,5.59476 -2.85714,8.57143 -0.50686,3.29457 0,6.66667 0,10 0,1.90476 0,3.80952 0,5.71428 0,1.77532 -0.28363,8.29823 0,10 0.24756,1.48536 0.83539,2.90163 1.42857,4.28572 0.83889,1.9574 1.3513,4.20844 2.85715,5.71428 1.96338,1.96339 4.83255,2.74551 7.14285,4.28572 4.44152,2.96101 -3.71806,0.24328 5.71429,4.28571 1.80463,0.77342 3.77761,1.1058 5.71428,1.42857 1.87885,0.31315 3.80953,0 5.71429,0 4.28571,0 8.57143,0 12.85714,0 5.2381,0 10.47619,0 15.71429,0 2.38095,0 4.7619,0 7.14286,0 0.95238,0 1.95363,0.30117 2.85714,0 2.43277,-0.81092 4.68664,-2.12027 7.14286,-2.85714 2.3257,-0.69771 4.7619,-0.95238 7.14285,-1.42857 2.38096,-0.47619 5.12256,-0.0817 7.14286,-1.42857 2.53701,-1.69134 3.03749,-5.68279 5.71429,-7.14286 2.95602,-1.61238 6.87365,-0.17803 10,-1.42857 1.8758,-0.75032 2.85714,-2.85714 4.28571,-4.28571 1.42857,-1.42858 3.38221,-2.4787 4.28571,-4.28572 0.63888,-1.27775 0,-2.85714 0,-4.28571 0,-0.47619 -0.33671,-1.09186 0,-1.42857 0.33672,-0.33672 1.31308,0.46197 1.42858,0 0.0179,-0.0716 0.11237,-15.48955 0,-15.71429 -1.63024,-3.26046 -7.52484,-3.22493 -10,-4.28571 -5.16553,-2.2138 -7.81532,-7.47909 -12.85715,-10 -2.69374,-1.34687 -5.83693,-1.59507 -8.57143,-2.85715 -3.48581,-1.60883 -6.56614,-3.99735 -10,-5.71428 -1.34687,-0.67344 -3.10984,-0.48788 -4.28571,-1.42857 -1.3407,-1.07256 -1.4836,-3.25556 -2.85714,-4.28572 -0.76191,-0.57143 -1.90476,0 -2.85715,0 -3.80952,0 -7.61904,0 -11.42857,0 -1.42857,0 -2.95932,-0.53056 -4.28571,0 -2.50108,1.00043 -3.21321,4.71386 -5.71429,5.71429 -7.69609,3.07843 -2.52498,-7.52247 -12.85714,4.28571 -1.59892,1.82734 -0.34269,4.9711 -1.42857,7.14286 -0.72259,1.44517 -5.74114,1.73577 -7.14286,2.85714 -1.34069,1.07256 -1.90476,2.85714 -2.85714,4.28572 -6.36633,9.54948 0.32675,-1.53118 -4.28572,10 -1.18636,2.96591 -2.73438,5.77903 -4.28571,8.57142 -0.83381,1.50087 -2.38547,2.63485 -2.85714,4.28572 -0.52328,1.83147 0,3.80952 0,5.71428 0,1.90477 0,3.80953 0,5.71429 0,1.42857 0,2.85714 0,4.28571 0,0.95239 -0.88427,2.50344 0,2.85715 2.21066,0.88426 4.7619,0 7.14285,0 0.95239,0 2.00531,-0.42592 2.85715,0 1.20467,0.60234 1.532,2.6162 2.85714,2.85714 4.21659,0.76665 8.57143,0 12.85714,0 2.85715,0 5.71429,0 8.57143,0 8.86037,0 12.90352,0.53875 21.42857,-1.42857 2.93457,-0.67721 5.64966,-2.1267 8.57143,-2.85714 2.81007,-0.70252 5.88205,-0.35282 8.57143,-1.42858 6.85579,-2.74231 5.00132,-3.5745 7.14286,-8.57142 0.83888,-1.95741 1.67586,-3.94237 2.85714,-5.71429 1.47515,-2.21272 9.815,-8.35559 10,-8.57143 0.97999,-1.14332 0.89983,-2.87575 1.42857,-4.28571 8.18248,-21.81994 -1.83428,7.13426 4.28572,-14.28572 0.29252,-1.02382 1.21974,-1.81302 1.42857,-2.85714 0.37505,-1.87526 0,-6.30015 0,-8.57143 0,-0.95238 0,-1.90476 0,-2.85714 0,-0.47619 0.33671,-1.09186 0,-1.42857 -0.33672,-0.33672 -0.9666,0.11549 -1.42857,0 -1.46089,-0.36522 -2.7915,-1.2418 -4.28572,-1.42857 -2.36256,-0.29533 -4.83299,0.57746 -7.14286,0 -3.51827,-0.87957 -6.45394,-3.52585 -10,-4.28572 -8.228,-1.76314 -12.24326,0.91796 -20,2.85714 -0.46197,0.1155 -0.97681,-0.15058 -1.42857,0 -10.34773,3.44925 2.2523,-0.41186 -4.28571,2.85715 -3.59856,1.79928 1.23628,-5.42586 -4.28572,2.85714 -0.26414,0.39621 0,0.95238 0,1.42857 0,0.95238 0,1.90476 0,2.85714"
       id="path3774"
       inkscape:connector-curvature="0"
       transform="translate(0,352.36218)" />
    <path
       style="fill:#ffffff;stroke:#000000;stroke-width:4;stroke-linecap:butt;stroke-linejoin:miter;stroke-opacity:1;stroke-miterlimit:4;stroke-dasharray:none;fill-opacity:1"
       d="m 442.85714,368.57143 c 4.28572,0 8.57143,0 12.85715,0 1.42857,0 2.8715,-0.20203 4.28571,0 1.94365,0.27766 3.77762,1.10579 5.71429,1.42857 1.40913,0.23486 2.85714,0 4.28571,0 1.90476,0 3.81735,0.17245 5.71429,0 3.35334,-0.30485 6.64028,-1.20459 10,-1.42857 3.80108,-0.25341 7.67088,0.62628 11.42857,0 2.10061,-0.3501 3.66663,-2.2721 5.71428,-2.85714 1.37361,-0.39246 2.87658,0.23485 4.28572,0 1.48536,-0.24756 2.795,-1.21562 4.28571,-1.42858 1.88562,-0.26937 3.88281,0.52328 5.71429,0 3.04595,-0.87027 8.53324,-7.10467 10,-8.57142 1.42857,-1.42858 3.24627,-2.55332 4.28571,-4.28572 0.77475,-1.29125 0.52507,-3.08104 1.42857,-4.28571 0.63888,-0.85184 2.10422,-0.67565 2.85715,-1.42857 0.33671,-0.33672 -0.1155,-0.9666 0,-1.42858 0.36522,-1.46088 0.95238,-2.85714 1.42857,-4.28571 0.47619,-1.42857 1.18101,-2.80036 1.42857,-4.28571 0.23485,-1.40914 0,-2.85715 0,-4.28572 0,-3.33333 0,-6.66667 0,-10 0,-3.33333 0,-6.66667 0,-10 0,-4.44357 0.64069,-8.71863 -1.42857,-12.85714 -2.74025,-5.48049 -8.29741,-10.49567 -11.42857,-15.71429 -0.245,-0.40833 0,-0.95238 0,-1.42857 -0.47619,-1.42857 -0.48788,-3.10984 -1.42858,-4.28571 -1.07255,-1.3407 -2.91217,-1.82699 -4.28571,-2.85715 -0.53875,-0.40406 -0.95238,-0.95238 -1.42857,-1.42857 -0.42392,-0.42391 -3.35922,-3.35922 -4.28572,-4.28571 -0.47619,-0.47619 -0.77524,-1.26524 -1.42857,-1.42857 -1.38591,-0.34648 -2.85714,0 -4.28571,0 -0.95238,0 -2.06472,0.52828 -2.85714,0 -0.88597,-0.59064 -0.54261,-2.2665 -1.42858,-2.85715 -0.21753,-0.14502 -7.99739,0 -8.57142,0 -4.76191,0 -9.52381,0 -14.28572,0 -1.42857,0 -2.88488,-0.28016 -4.28571,0 -1.04412,0.20883 -1.90476,0.95239 -2.85715,1.42858 -4.66415,2.33207 -2.10422,0.67564 -7.14285,5.71428 -6.66994,6.66994 -2.1706,1.61027 -7.14286,8.57143 -1.3839,1.93746 -3.02381,3.69524 -4.28571,5.71429 -1.12868,1.80588 -1.76148,3.88817 -2.85715,5.71428 -2.72109,4.53515 -1.36054,-4.08163 -5.71428,5.71429 -1.1764,2.6469 -0.35282,5.88204 -1.42857,8.57143 -0.88427,2.21065 -3.34782,3.52584 -4.28572,5.71428 -0.56274,1.31307 0,2.85714 0,4.28572 0,2.85714 0,5.71428 0,8.57142 0,0.47619 0.21296,1.00266 0,1.42858 -3.12128,6.24257 -2.85714,2.13594 -2.85714,5.71428 0,0.95238 -0.30117,1.95364 0,2.85714 1.10152,3.30457 1.22449,0.34014 2.85714,1.42858 1.12067,0.7471 1.90476,1.90476 2.85714,2.85714 0.47619,0.47619 0.76191,1.33333 1.42858,1.42857 3.29983,0.4714 6.66666,0 10,0 1.42857,0 2.9121,-0.39246 4.28571,0 2.04765,0.58504 3.69398,2.18371 5.71429,2.85714 4.28571,1.42857 1.42857,-0.71428 4.28571,0 1.46089,0.36522 2.82483,1.06335 4.28571,1.42857 0.46198,0.1155 0.95239,0 1.42858,0 13.33333,0 3.61784,0 8.57142,0 0.4762,0 0.97682,-0.15058 1.42858,0 1.01015,0.33672 1.84699,1.09186 2.85714,1.42858 0.94485,0.31495 7.16805,0 8.57143,0 0.95238,0 1.90476,0 2.85714,0 0.95238,0 1.95364,0.30116 2.85714,0 0.63888,-0.21296 1.21562,-0.7897 1.42857,-1.42858 0.30117,-0.9035 0,-1.90476 0,-2.85714 0,-2.85937 0,-5.71205 0,-8.57143 0,-3.33333 0,-6.66666 0,-10 0,-1.90476 0.94503,-4.06049 0,-5.71428 -8.05353,-14.09369 -2.9195,0.87962 -8.57142,-5.71429 -13.13659,-19.70487 1.26348,-0.16508 -11.42858,-12.85714 -1.68358,-1.68359 -2.4265,-4.22692 -4.28571,-5.71429 -0.74368,-0.59495 -1.95363,0.30117 -2.85714,0 -0.63888,-0.21296 -0.82624,-1.1274 -1.42857,-1.42857 -0.42592,-0.21296 -1.18358,0.40833 -1.42858,0 -1.31935,-2.19892 -1.53778,-4.94393 -2.85714,-7.14286 -0.16665,-0.27775 -4.28118,0 -5.71428,0 -6.19048,0 -12.38096,0 -18.57143,0 -1.90476,0 -3.82424,-0.23625 -5.71429,0 -1.94822,0.24353 -3.78903,1.04352 -5.71428,1.42858 -27.46015,5.49203 6.36219,-2.59693 -14.28572,4.28571 -0.90351,0.30117 -1.95363,-0.30117 -2.85714,0 -0.63888,0.21296 -0.86824,1.05502 -1.42857,1.42857 -5.71429,3.80953 -0.47619,-1.42857 -4.28572,4.28572 -0.37355,0.56033 -1.21561,0.78969 -1.42857,1.42857 -0.21693,0.6508 0,9.03254 0,10 0,2.86213 0,5.70929 0,8.57143 0,5.6893 -0.77962,7.7918 4.28572,12.85714 1.06479,1.06479 2.93884,0.75513 4.28571,1.42857 0.60234,0.30117 0.95238,0.95238 1.42857,1.42857 1.42857,0.95238 2.70761,2.18081 4.28572,2.85714 1.80463,0.77342 4.08065,0.33949 5.71428,1.42858 1.42857,0.95238 1.4836,3.25555 2.85714,4.28571 0.76191,0.57143 1.90477,0 2.85715,0 1.42857,0 2.9481,-0.50161 4.28571,0 2.59985,0.97494 4.73206,2.90811 7.14286,4.28571 0.9245,0.52829 1.80305,1.27799 2.85714,1.42858 2.35702,0.33671 4.95442,-0.93791 7.14286,0 1.57811,0.67633 1.75799,2.96673 2.85714,4.28571 1.78449,2.14139 5.7621,6.01912 8.57143,7.14286 0.78133,0.31253 7.36075,0 8.57143,0 0.72623,0 10.97478,0.15126 11.42857,0 0.45175,-0.15059 -0.33672,-1.09186 0,-1.42857 6.63222,-3.31611 0.24252,0.94353 2.85714,-4.28572 0.21296,-0.42592 1.09186,0.33672 1.42857,0 0.33672,-0.33672 -0.26414,-1.03236 0,-1.42857 0.74711,-1.12066 2.11004,-1.73648 2.85715,-2.85714 0.26414,-0.39622 0,-0.95238 0,-1.42857 0,-2.85715 0,-5.71429 0,-8.57143 0,-0.0111 0.0668,-11.26157 0,-11.42857 C 496.06134,323.01049 491.59527,321.86115 490,320 c -1.80702,-2.10819 -2.74551,-4.83255 -4.28571,-7.14286 -0.37356,-0.56033 -0.95238,-0.95238 -1.42858,-1.42857 -0.95238,-0.95238 -1.73647,-2.11003 -2.85714,-2.85714 -1.77192,-1.18128 -4.05135,-1.5268 -5.71428,-2.85714 -0.83147,-0.66518 -0.47619,-2.38096 -1.42858,-2.85715 -1.34164,-0.67082 -9.26144,0.54179 -11.42857,0 -1.033,-0.25825 -1.82414,-1.17032 -2.85714,-1.42857 -0.92394,-0.23099 -1.90476,0 -2.85714,0 -1.42857,0 -2.85715,0 -4.28572,0 -1.42857,0 -2.9481,-0.5016 -4.28571,0 -2.59985,0.97495 -4.73206,2.90811 -7.14286,4.28572 -0.9245,0.52828 -2.10422,0.67564 -2.85714,1.42857 -0.75292,0.75292 -0.95238,1.90476 -1.42857,2.85714 -1.42857,2.85714 -2.85715,5.71429 -4.28572,8.57143 -0.47619,0.95238 -1.27798,1.80305 -1.42857,2.85714 -0.33672,2.35702 1.0648,5.01327 0,7.14286 -0.67343,1.34687 -3.12889,0.46455 -4.28571,1.42857 -2.68425,2.23688 -5.11708,6.41673 -5.71429,10 -0.23485,1.40913 0.63888,3.00796 0,4.28571 -0.47619,0.95239 -2.2665,0.54261 -2.85714,1.42858 -0.0547,0.0821 0,6.87399 0,7.14285"
       id="path3778"
       inkscape:connector-curvature="0"
       transform="translate(0,352.36218)" />
    <path
       style="fill:#ffffff;stroke:#000000;stroke-width:4;stroke-linecap:butt;stroke-linejoin:miter;stroke-opacity:1;stroke-miterlimit:4;stroke-dasharray:none;fill-opacity:1"
       d="m 360,411.42857 c 0,10.95238 0,21.90476 0,32.85714 0,6.66667 0,13.33334 0,20 0,1.91446 0.26867,8.65667 0,10 -0.20882,1.04412 -1.09185,1.84699 -1.42857,2.85715 -0.15059,0.45175 0.21296,1.00265 0,1.42857 -0.30117,0.60234 -1.21561,0.78969 -1.42857,1.42857 -0.30117,0.90351 0.67343,2.18371 0,2.85714 -1.0648,1.0648 -3.22092,0.36378 -4.28572,1.42857 -1.08305,1.08305 1.48219,5.20235 -1.42857,7.14286 -0.79243,0.52829 -1.95363,-0.30117 -2.85714,0 -0.48028,0.16009 -5.37481,5.37482 -5.71429,5.71429 -0.47619,0.47619 -0.78969,1.21561 -1.42857,1.42857 -0.90351,0.30117 -2.06471,-0.52829 -2.85714,0 -0.88596,0.59064 -0.54261,2.2665 -1.42857,2.85714 -4.28572,2.85714 -1.42857,-1.42857 -4.28572,0 -0.60234,0.30117 -0.78969,1.21561 -1.42857,1.42857 -0.90351,0.30117 -1.97288,-0.3537 -2.85714,0 -1.59413,0.63765 -2.75005,2.08931 -4.28572,2.85715 -0.42591,0.21295 -0.97681,-0.15059 -1.42857,0 -1.01015,0.33671 -1.84699,1.09185 -2.85714,1.42857 -1.51802,0.506 -4.19627,-0.50601 -5.71429,0 -0.63887,0.21296 -0.78969,1.21561 -1.42857,1.42857 -0.9035,0.30117 -2.06471,-0.52829 -2.85714,0 -0.88596,0.59064 -0.67565,2.10422 -1.42857,2.85714 -0.33672,0.33672 -0.95238,0 -1.42857,0 -0.95238,0 -1.90476,0 -2.85715,0 -3.80952,0 -7.61904,0 -11.42857,0 -1.42857,0 -2.85714,0 -4.28571,0 -0.95238,0 -2.06472,0.52829 -2.85714,0 -0.88597,-0.59064 -0.54261,-2.2665 -1.42858,-2.85714 -0.79242,-0.52829 -2.0053,0.42592 -2.85714,0 -0.42592,-0.21296 0.33672,-1.09186 0,-1.42857 -0.33672,-0.33672 -0.95238,0 -1.42857,0 0,-0.95238 0.42592,-2.00531 0,-2.85715 -0.21296,-0.42591 -0.97682,0.15059 -1.42857,0 -1.01015,-0.33671 -1.84699,-1.09185 -2.85714,-1.42857 -0.45176,-0.15058 -1.21562,0.42592 -1.42858,0 -0.42591,-0.85183 0.67344,-2.18371 0,-2.85714 -0.67343,-0.67344 -2.0053,0.42592 -2.85714,0 -0.42592,-0.21296 0.26414,-1.03236 0,-1.42857 -3.19386,-4.79079 -2.85714,-0.94567 -2.85714,-4.28572"
       id="path3782"
       inkscape:connector-curvature="0"
       transform="translate(0,352.36218)" />
    <path
       style="fill:#ffffff;stroke:#000000;stroke-width:4;stroke-linecap:butt;stroke-linejoin:miter;stroke-opacity:1;stroke-miterlimit:4;stroke-dasharray:none;fill-opacity:1"
       d="m 360,470 c 0,4.7619 0,9.52381 0,14.28571 0,0.95239 -0.42592,2.00531 0,2.85715 0.21296,0.42591 1.09185,-0.33672 1.42857,0 0.33671,0.33671 -0.41163,6.52541 0,7.14285 0.74711,1.12067 1.90476,1.90477 2.85714,2.85715 0.47619,0.47619 0.7897,1.21561 1.42858,1.42857 0.9035,0.30117 2.1837,-0.67344 2.85714,0 0.67343,0.67343 -0.42592,2.00531 0,2.85714 0.21296,0.42592 0.95238,0 1.42857,0 1.90476,0 3.80952,0 5.71429,0 0.42594,0 5.64511,-0.0519 5.71428,0 1.61625,1.21218 2.4787,3.38221 4.28572,4.28572 1.27775,0.63887 2.85714,0 4.28571,0 1.42857,0 2.85714,0 4.28571,0 5.2381,0 10.47619,0 15.71429,0 4.7619,0 9.52381,0 14.28571,0 1.19627,0 6.05648,0.27159 7.14286,0 1.033,-0.25825 1.82414,-1.17033 2.85714,-1.42858 0.92395,-0.23098 2.04049,0.49 2.85715,0 1.42857,-1.42857 2.85714,-2.85714 4.28571,-4.28571 0,-0.47619 -0.33672,-1.09185 0,-1.42857 0.33672,-0.33672 1.09186,0.33672 1.42857,0 0.75293,-0.75292 0.67565,-2.10422 1.42857,-2.85714 2.41936,-2.41936 4.7235,-0.43779 7.14286,-2.85715 0.75292,-0.75292 1.09186,-1.84699 1.42857,-2.85714 0.15059,-0.45175 -0.42591,-1.21561 0,-1.42857 0.85184,-0.42592 2.06472,0.52828 2.85715,0 0.88596,-0.59064 0.67564,-2.10422 1.42857,-2.85714 0.33671,-0.33672 1.09185,0.33671 1.42857,0 0.33672,-0.33672 -0.42592,-1.21562 0,-1.42858 1.27775,-0.63887 2.85714,0 4.28571,0"
       id="path3784"
       inkscape:connector-curvature="0"
       transform="translate(0,352.36218)" />
  </g>
</svg>
